grf
version=1
nRows=18
nColumns=46
inDegrees=yes
endheader
time	ground_force_1_vx	ground_force_1_vy	ground_force_1_vz	ground_force_1_px	ground_force_1_py	ground_force_1_pz	ground_moment_1_mx	ground_moment_1_my	ground_moment_1_mz	ground_force_2_vx	ground_force_2_vy	ground_force_2_vz	ground_force_2_px	ground_force_2_py	ground_force_2_pz	ground_moment_2_mx	ground_moment_2_my	ground_moment_2_mz	ground_force_3_vx	ground_force_3_vy	ground_force_3_vz	ground_force_3_px	ground_force_3_py	ground_force_3_pz	ground_moment_3_mx	ground_moment_3_my	ground_moment_3_mz	ground_force_4_vx	ground_force_4_vy	ground_force_4_vz	ground_force_4_px	ground_force_4_py	ground_force_4_pz	ground_moment_4_mx	ground_moment_4_my	ground_moment_4_mz	ground_force_5_vx	ground_force_5_vy	ground_force_5_vz	ground_force_5_px	ground_force_5_py	ground_force_5_pz	ground_moment_5_mx	ground_moment_5_my	ground_moment_5_mz
1.157500	0.000000	0.000000	0.000000	0.000000	0.000000	0.000000	0.000000	0.000000	0.000000	0.000000	0.000000	0.000000	0.000000	0.000000	0.000000	0.000000	0.000000	0.000000	217.597277	752.604242	41.911072	0.402270	0.000000	0.152204	0.000000	-5.379921	0.000000	-98.169020	507.145056	41.296977	0.946340	0.000000	0.295803	0.000000	-0.244696	0.000000	0.000000	0.000000	0.000000	0.000000	0.000000	0.000000	0.000000	0.000000	0.000000
1.158000	0.000000	0.000000	0.000000	0.000000	0.000000	0.000000	0.000000	0.000000	0.000000	0.000000	0.000000	0.000000	0.000000	0.000000	0.000000	0.000000	0.000000	0.000000	217.679290	748.320580	41.300491	0.402268	0.000000	0.152247	0.000000	-5.332947	0.000000	-99.011480	508.900652	40.640044	0.946566	0.000000	0.295946	0.000000	-0.245389	0.000000	0.000000	0.000000	0.000000	0.000000	0.000000	0.000000	0.000000	0.000000	0.000000
1.158500	0.000000	0.000000	0.000000	0.000000	0.000000	0.000000	0.000000	0.000000	0.000000	0.000000	0.000000	0.000000	0.000000	0.000000	0.000000	0.000000	0.000000	0.000000	217.737822	743.978119	40.687023	0.402266	0.000000	0.152291	0.000000	-5.285901	0.000000	-99.799402	510.620133	39.957815	0.946790	0.000000	0.296092	0.000000	-0.245311	0.000000	0.000000	0.000000	0.000000	0.000000	0.000000	0.000000	0.000000	0.000000	0.000000
1.159000	0.000000	0.000000	0.000000	0.000000	0.000000	0.000000	0.000000	0.000000	0.000000	0.000000	0.000000	0.000000	0.000000	0.000000	0.000000	0.000000	0.000000	0.000000	217.772238	739.576497	40.070865	0.402263	0.000000	0.152333	0.000000	-5.238792	0.000000	-100.535217	512.309087	39.250838	0.947014	0.000000	0.296243	0.000000	-0.244410	0.000000	0.000000	0.000000	0.000000	0.000000	0.000000	0.000000	0.000000	0.000000	0.000000
1.159500	0.000000	0.000000	0.000000	0.000000	0.000000	0.000000	0.000000	0.000000	0.000000	0.000000	0.000000	0.000000	0.000000	0.000000	0.000000	0.000000	0.000000	0.000000	217.781895	735.115370	39.452222	0.402258	0.000000	0.152376	0.000000	-5.191628	0.000000	-101.221534	513.972900	38.519598	0.947238	0.000000	0.296399	0.000000	-0.242640	0.000000	0.000000	0.000000	0.000000	0.000000	0.000000	0.000000	0.000000	0.000000	0.000000
1.160000	0.000000	0.000000	0.000000	0.000000	0.000000	0.000000	0.000000	0.000000	0.000000	0.000000	0.000000	0.000000	0.000000	0.000000	0.000000	0.000000	0.000000	0.000000	217.766140	730.594408	38.831313	0.402253	0.000000	0.152418	0.000000	-5.144420	0.000000	-101.861123	515.616743	37.764524	0.947463	0.000000	0.296558	0.000000	-0.239952	0.000000	0.000000	0.000000	0.000000	0.000000	0.000000	0.000000	0.000000	0.000000	0.000000
1.160500	0.000000	0.000000	0.000000	0.000000	0.000000	0.000000	0.000000	0.000000	0.000000	0.000000	0.000000	0.000000	0.000000	0.000000	0.000000	0.000000	0.000000	0.000000	217.724315	726.013281	38.208365	0.402248	0.000000	0.152460	0.000000	-5.097180	0.000000	-102.456901	517.245574	36.985979	0.947689	0.000000	0.296722	0.000000	-0.236303	0.000000	0.000000	0.000000	0.000000	0.000000	0.000000	0.000000	0.000000	0.000000	0.000000
1.161000	0.000000	0.000000	0.000000	0.000000	0.000000	0.000000	0.000000	0.000000	0.000000	0.000000	0.000000	0.000000	0.000000	0.000000	0.000000	0.000000	0.000000	0.000000	217.655749	721.371652	37.583614	0.402241	0.000000	0.152501	0.000000	-5.049917	0.000000	-103.011920	518.864131	36.184268	0.947917	0.000000	0.296889	0.000000	-0.231648	0.000000	0.000000	0.000000	0.000000	0.000000	0.000000	0.000000	0.000000	0.000000	0.000000
1.161500	0.000000	0.000000	0.000000	0.000000	0.000000	0.000000	0.000000	0.000000	0.000000	0.000000	0.000000	0.000000	0.000000	0.000000	0.000000	0.000000	0.000000	0.000000	217.559755	716.669182	36.957306	0.402234	0.000000	0.152542	0.000000	-5.002639	0.000000	-103.529349	520.476934	35.359631	0.948148	0.000000	0.297060	0.000000	-0.225947	0.000000	0.000000	0.000000	0.000000	0.000000	0.000000	0.000000	0.000000	0.000000	0.000000
1.162000	0.000000	0.000000	0.000000	0.000000	0.000000	0.000000	0.000000	0.000000	0.000000	0.000000	0.000000	0.000000	0.000000	0.000000	0.000000	0.000000	0.000000	0.000000	217.435629	711.905543	36.329700	0.402226	0.000000	0.152582	0.000000	-4.955355	0.000000	-104.012452	522.088282	34.512255	0.948382	0.000000	0.297235	0.000000	-0.219159	0.000000	0.000000	0.000000	0.000000	0.000000	0.000000	0.000000	0.000000	0.000000	0.000000
1.162500	0.000000	0.000000	0.000000	0.000000	0.000000	0.000000	0.000000	0.000000	0.000000	0.000000	0.000000	0.000000	0.000000	0.000000	0.000000	0.000000	0.000000	0.000000	217.282648	707.080436	35.701066	0.402218	0.000000	0.152621	0.000000	-4.908071	0.000000	-104.464571	523.702250	33.642277	0.948620	0.000000	0.297414	0.000000	-0.211246	0.000000	0.000000	0.000000	0.000000	0.000000	0.000000	0.000000	0.000000	0.000000	0.000000
1.163000	0.000000	0.000000	0.000000	0.000000	0.000000	0.000000	0.000000	0.000000	0.000000	0.000000	0.000000	0.000000	0.000000	0.000000	0.000000	0.000000	0.000000	0.000000	217.100074	702.193586	35.071681	0.402209	0.000000	0.152660	0.000000	-4.860797	0.000000	-104.889108	525.322682	32.749795	0.948861	0.000000	0.297597	0.000000	-0.202173	0.000000	0.000000	0.000000	0.000000	0.000000	0.000000	0.000000	0.000000	0.000000	0.000000
1.163500	0.000000	0.000000	0.000000	0.000000	0.000000	0.000000	0.000000	0.000000	0.000000	0.000000	0.000000	0.000000	0.000000	0.000000	0.000000	0.000000	0.000000	0.000000	216.887153	697.244738	34.441833	0.402200	0.000000	0.152699	0.000000	-4.813539	0.000000	-105.289517	526.953182	31.834873	0.949108	0.000000	0.297783	0.000000	-0.191905	0.000000	0.000000	0.000000	0.000000	0.000000	0.000000	0.000000	0.000000	0.000000	0.000000
1.164000	0.000000	0.000000	0.000000	0.000000	0.000000	0.000000	0.000000	0.000000	0.000000	0.000000	0.000000	0.000000	0.000000	0.000000	0.000000	0.000000	0.000000	0.000000	216.643114	692.233641	33.811823	0.402190	0.000000	0.152737	0.000000	-4.766303	0.000000	-105.669291	528.597111	30.897555	0.949359	0.000000	0.297973	0.000000	-0.180408	0.000000	0.000000	0.000000	0.000000	0.000000	0.000000	0.000000	0.000000	0.000000	0.000000
1.164500	0.000000	0.000000	0.000000	0.000000	0.000000	0.000000	0.000000	0.000000	0.000000	0.000000	0.000000	0.000000	0.000000	0.000000	0.000000	0.000000	0.000000	0.000000	216.367170	687.160059	33.181963	0.402180	0.000000	0.152774	0.000000	-4.719096	0.000000	-106.031949	530.257585	29.937866	0.949616	0.000000	0.298166	0.000000	-0.167652	0.000000	0.000000	0.000000	0.000000	0.000000	0.000000	0.000000	0.000000	0.000000	0.000000
1.165000	0.000000	0.000000	0.000000	0.000000	0.000000	0.000000	0.000000	0.000000	0.000000	0.000000	0.000000	0.000000	0.000000	0.000000	0.000000	0.000000	0.000000	0.000000	216.058517	682.023783	32.552572	0.402170	0.000000	0.152810	0.000000	-4.671922	0.000000	-106.381012	531.937479	28.955827	0.949879	0.000000	0.298362	0.000000	-0.153609	0.000000	0.000000	0.000000	0.000000	0.000000	0.000000	0.000000	0.000000	0.000000	0.000000
1.165500	0.000000	0.000000	0.000000	0.000000	0.000000	0.000000	0.000000	0.000000	0.000000	0.000000	0.000000	0.000000	0.000000	0.000000	0.000000	0.000000	0.000000	0.000000	215.716339	676.824634	31.923981	0.402160	0.000000	0.152846	0.000000	-4.624789	0.000000	-106.719986	533.639431	27.951463	0.950148	0.000000	0.298562	0.000000	-0.138257	0.000000	0.000000	0.000000	0.000000	0.000000	0.000000	0.000000	0.000000	0.000000	0.000000
1.166000	0.000000	0.000000	0.000000	0.000000	0.000000	0.000000	0.000000	0.000000	0.000000	0.000000	0.000000	0.000000	0.000000	0.000000	0.000000	0.000000	0.000000	0.000000	215.339808	671.562473	31.296527	0.402150	0.000000	0.152881	0.000000	-4.577698	0.000000	-107.052347	535.365853	26.924813	0.950423	0.000000	0.298765	0.000000	-0.121581	0.000000	0.000000	0.000000	0.000000	0.000000	0.000000	0.000000	0.000000	0.000000	0.000000
